<?xml version="1.0" encoding="utf-8"?><!-- Uploaded to: SVG Repo, www.svgrepo.com, Generator: SVG Repo Mixer Tools -->
<svg version="1.1" id="Uploaded to svgrepo.com" xmlns="http://www.w3.org/2000/svg" xmlns:xlink="http://www.w3.org/1999/xlink" 
	 width="800px" height="800px" viewBox="0 0 32 32" xml:space="preserve">
<style type="text/css">
	.stone_een{fill:#0B1719;}
</style>
<path class="stone_een" d="M18,16c0,1.105-0.895,2-2,2c-1.105,0-2-0.895-2-2c0-1.105,0.895-2,2-2C17.105,14,18,14.895,18,16z
	 M13.005,16.054c-0.939-0.248-2.005-0.454-3.02-0.454c-0.859,0-1.547,0.146-2.048,0.435c-1.19,0.687-1.912,1.479-2.147,2.353
	C5.557,19.263,5.787,20.31,6.474,21.5c0.869,1.505,1.867,2.237,3.052,2.237c0.712,0,1.524-0.26,2.412-0.772
	c1.235-0.713,2.042-2.652,2.524-4.402C13.605,18.046,13.025,17.121,13.005,16.054z M16,13c0.528,0,1.017,0.149,1.449,0.39
	C18.724,12.097,20,10.427,20,9c0-2.766-1.234-4-4-4s-4,1.234-4,4c0,1.427,1.276,3.097,2.551,4.39C14.983,13.149,15.472,13,16,13z
	 M30,16c0,7.732-6.268,14-14,14S2,23.732,2,16S8.268,2,16,2S30,8.268,30,16z M26.392,22c1.657-2.87,1.04-5.173-1.83-6.83
	c-0.717-0.414-1.61-0.569-2.547-0.569c-1.078,0-2.193,0.209-3.18,0.463c-0.13-0.392-0.335-0.747-0.604-1.049
	C19.565,12.651,21,10.779,21,9c0-3.314-1.686-5-5-5s-5,1.686-5,5c0,1.779,1.435,3.651,2.769,5.014
	c-0.269,0.302-0.474,0.657-0.604,1.049c-0.986-0.254-2.102-0.463-3.18-0.463c-0.937,0-1.83,0.155-2.547,0.569
	c-2.87,1.657-3.487,3.96-1.83,6.83c1.052,1.823,2.365,2.737,3.919,2.737c0.892,0,1.865-0.302,2.912-0.906
	c1.537-0.887,2.44-3.058,2.955-4.892C15.589,18.978,15.792,19,16,19s0.411-0.022,0.607-0.062c0.515,1.834,1.418,4.005,2.955,4.892
	c1.047,0.605,2.019,0.906,2.912,0.906C24.027,24.737,25.34,23.822,26.392,22z M24.062,16.036c-0.5-0.289-1.189-0.435-2.047-0.435
	c-1.018,0-2.083,0.206-3.021,0.453c-0.019,1.067-0.599,1.992-1.457,2.509c0.482,1.75,1.289,3.689,2.524,4.402
	c0.888,0.513,1.699,0.772,2.412,0.772c1.185,0,2.184-0.732,3.053-2.237c0.687-1.19,0.917-2.237,0.682-3.111
	C25.975,17.515,25.252,16.723,24.062,16.036z M3.508,24.249l-0.629,0.629c-1.17,1.17-1.17,3.073,0,4.242C3.446,29.688,4.199,30,5,30
	c0.801,0,1.554-0.312,2.121-0.879L7.743,28.5C6.062,27.382,4.623,25.933,3.508,24.249z M28.492,24.249
	c-1.115,1.683-2.553,3.133-4.235,4.25l0.622,0.622C25.446,29.688,26.199,30,27,30c0.801,0,1.554-0.312,2.121-0.879
	c1.17-1.17,1.17-3.073,0-4.242L28.492,24.249z"/>
</svg>